<svg width="13" height="12" viewBox="0 0 13 12" fill="none" xmlns="http://www.w3.org/2000/svg">
<path d="M12.1 5.99996C12.1 2.68623 9.41368 -8.7738e-05 6.09998 -8.7738e-05C2.78627 -8.7738e-05 0.0999756 2.68623 0.0999756 5.99996C0.0999756 8.81386 2.03714 11.1749 4.65052 11.8233V7.83347H3.41327V5.99996H4.65052V5.20989C4.65052 3.16767 5.57471 2.2211 7.57967 2.2211C7.95978 2.2211 8.61568 2.29562 8.884 2.37017V4.03228C8.74238 4.01737 8.49642 4.00991 8.19083 4.00991C7.207 4.00991 6.82686 4.38258 6.82686 5.35152V5.99996H8.78668L8.45001 7.83347H6.82686V11.9561C9.79773 11.5972 12.1 9.06761 12.1 5.99996Z" fill="#0866FF"/>
<path d="M8.44933 7.83348L8.78603 5.99996H6.82621V5.3515C6.82621 4.38256 7.20633 4.00991 8.19016 4.00991C8.49575 4.00991 8.7417 4.01735 8.88333 4.03226V2.37017C8.61501 2.29563 7.95911 2.22108 7.579 2.22108C5.57406 2.22108 4.64985 3.16768 4.64985 5.2099V5.99996H3.4126V7.83348H4.64985V11.8233C5.11408 11.9385 5.59948 12 6.0993 12C6.3454 12 6.58789 11.9848 6.82621 11.9561V7.83348H8.44933Z" fill="white"/>
</svg>
