<svg width="13" height="14" viewBox="0 0 13 14" fill="none" xmlns="http://www.w3.org/2000/svg">
<path d="M12.1 7.13916C12.1 6.70502 12.061 6.28758 11.9887 5.88684H6.22242V8.2579H9.51742C9.3727 9.02042 8.93857 9.66606 8.28736 10.1002V11.6419H10.2744C11.4321 10.5733 12.1 9.00372 12.1 7.13916Z" fill="#4285F4"/>
<path d="M6.22242 13.1225C7.87549 13.1225 9.26139 12.577 10.2744 11.6419L8.28736 10.1002C7.74191 10.4675 7.04617 10.6902 6.22242 10.6902C4.63059 10.6902 3.27808 9.61597 2.79385 8.16884H0.756747V9.74955C1.76417 11.7477 3.8291 13.1225 6.22242 13.1225Z" fill="#34A853"/>
<path d="M2.79385 8.16328C2.6714 7.79593 2.59905 7.40632 2.59905 7.00001C2.59905 6.59371 2.6714 6.20409 2.79385 5.83675V4.25604H0.756747C0.339308 5.07979 0.0999756 6.00929 0.0999756 7.00001C0.0999756 7.99074 0.339308 8.92024 0.756747 9.74398L2.34302 8.50836L2.79385 8.16328Z" fill="#FBBC05"/>
<path d="M6.22242 3.31541C7.12409 3.31541 7.92558 3.6271 8.56565 4.22821L10.3189 2.47497C9.25582 1.48424 7.87549 0.877563 6.22242 0.877563C3.8291 0.877563 1.76417 2.25233 0.756747 4.25604L2.79385 5.83675C3.27808 4.38962 4.63059 3.31541 6.22242 3.31541Z" fill="#EA4335"/>
</svg>
