<svg width="12" height="18" viewBox="0 0 12 18" fill="none" xmlns="http://www.w3.org/2000/svg">
<path d="M11.25 8.1875H6.75V3.3125C6.75 3.09701 6.67098 2.89035 6.53033 2.73798C6.38968 2.5856 6.19891 2.5 6 2.5C5.80109 2.5 5.61032 2.5856 5.46967 2.73798C5.32902 2.89035 5.25 3.09701 5.25 3.3125V8.1875H0.75C0.551088 8.1875 0.360322 8.2731 0.21967 8.42548C0.0790178 8.57785 0 8.78451 0 9C0 9.21549 0.0790178 9.42215 0.21967 9.57452C0.360322 9.7269 0.551088 9.8125 0.75 9.8125H5.25V14.6875C5.25 14.903 5.32902 15.1097 5.46967 15.262C5.61032 15.4144 5.80109 15.5 6 15.5C6.19891 15.5 6.38968 15.4144 6.53033 15.262C6.67098 15.1097 6.75 14.903 6.75 14.6875V9.8125H11.25C11.4489 9.8125 11.6397 9.7269 11.7803 9.57452C11.921 9.42215 12 9.21549 12 9C12 8.78451 11.921 8.57785 11.7803 8.42548C11.6397 8.2731 11.4489 8.1875 11.25 8.1875Z" fill="white"/>
</svg>
