<svg width="13" height="14" viewBox="0 0 13 14" fill="none" xmlns="http://www.w3.org/2000/svg">
<path d="M4.77628 5.55947V5.03075C4.59275 5.0017 4.40737 4.98577 4.22158 4.98311C2.42278 4.97927 0.830267 6.14495 0.290088 7.86071C-0.25009 9.57646 0.387528 11.4442 1.864 12.4715C1.32258 11.8921 0.960435 11.1683 0.821291 10.3876C0.682148 9.60682 0.771951 8.8025 1.07986 8.07167C1.38777 7.34085 1.90062 6.71477 2.55652 6.269C3.21241 5.82323 3.98331 5.57683 4.77616 5.55953L4.77628 5.55947Z" fill="#25F4EE"/>
<path d="M4.876 11.5485C5.88171 11.5471 6.70839 10.7548 6.75243 9.75004V0.783905H8.39043C8.357 0.596549 8.34105 0.406493 8.34279 0.216187L6.10233 0.216187V9.17368C6.06507 10.1835 5.23641 10.9835 4.2259 10.9851C3.92392 10.9825 3.62686 10.9083 3.3592 10.7684C3.53268 11.0088 3.7605 11.2047 4.02409 11.3403C4.28769 11.4758 4.57959 11.5472 4.876 11.5485ZM11.4499 3.82602V3.32766C10.8471 3.3279 10.2576 3.15001 9.75554 2.81634C10.1957 3.32801 10.7905 3.68244 11.4499 3.82602Z" fill="#25F4EE"/>
<path d="M9.75554 2.81634C9.26092 2.25313 8.98826 1.5291 8.98851 0.779525H8.39043C8.46767 1.19396 8.62856 1.5883 8.86326 1.93849C9.09797 2.28868 9.40157 2.58737 9.75554 2.81634ZM4.22158 7.22357C3.80212 7.2257 3.39541 7.368 3.06612 7.62783C2.73682 7.88767 2.50384 8.25013 2.40421 8.65759C2.30458 9.06505 2.34402 9.49412 2.51627 9.87659C2.68851 10.2591 2.98367 10.573 3.35482 10.7684C3.1519 10.4882 3.03038 10.1574 3.00369 9.81249C2.977 9.46758 3.04618 9.12199 3.20358 8.81393C3.36098 8.50586 3.60048 8.24731 3.89562 8.06683C4.19076 7.88634 4.53005 7.79097 4.876 7.79123C5.06407 7.79369 5.25083 7.82296 5.43063 7.87817V5.59847C5.24701 5.57094 5.06167 5.55647 4.876 5.55515H4.77628V7.28855C4.59551 7.24006 4.40865 7.21817 4.22158 7.22357Z" fill="#FE2C55"/>
<path d="M11.4499 3.82602L11.4499 5.55947C10.3339 5.5573 9.24688 5.20404 8.34279 4.54973V9.10432C8.33799 11.377 6.49425 13.2169 4.22158 13.2169C3.37752 13.2184 2.55378 12.958 1.864 12.4715C2.42648 13.0765 3.1581 13.4981 3.96358 13.6813C4.76906 13.8646 5.61107 13.801 6.37991 13.4989C7.14876 13.1969 7.80881 12.6702 8.27409 11.9877C8.73938 11.3051 8.98832 10.4982 8.98851 9.67216V5.13047C9.89563 5.78047 10.984 6.12912 12.1 6.12719V3.8952C11.8815 3.89455 11.6637 3.87136 11.4499 3.82602Z" fill="#FE2C55"/>
<path d="M8.34279 9.10432V4.54973C9.24962 5.20032 10.3382 5.54903 11.4543 5.54645V3.81306C10.7949 3.67381 10.1987 3.32399 9.75554 2.81634C9.40157 2.58737 9.09797 2.28868 8.86326 1.93849C8.62856 1.5883 8.46767 1.19396 8.39043 0.779525H6.75243V9.75016C6.73648 10.1406 6.59929 10.5164 6.35993 10.8254C6.12056 11.1343 5.79091 11.361 5.41679 11.4739C5.04267 11.5868 4.64265 11.5804 4.27233 11.4556C3.90202 11.3307 3.57979 11.0936 3.35044 10.7772C2.97923 10.5818 2.68401 10.2678 2.51172 9.88535C2.33943 9.50286 2.29996 9.07375 2.3996 8.66625C2.49924 8.25874 2.73225 7.89625 3.06159 7.63641C3.39094 7.37656 3.7977 7.23429 4.2172 7.23221C4.40534 7.23389 4.59222 7.2631 4.7719 7.31891V5.58545C3.97478 5.59897 3.19883 5.84412 2.53863 6.29101C1.87844 6.73791 1.36253 7.36723 1.05382 8.10226C0.745109 8.83729 0.656929 9.64626 0.800031 10.4305C0.943134 11.2148 1.31134 11.9405 1.85974 12.5192C2.5563 12.9896 3.3812 13.2333 4.22158 13.2169C6.49425 13.2169 8.33799 11.377 8.34279 9.10432Z" fill="black"/>
</svg>
